<!-- 
    Tiny.css Official Logo

    Copyright (c) 2023 Muhammed Ihsan
    Licensed under the MIT license
 -->
<svg width="101" height="101" viewBox="0 0 101 101" fill="none" xmlns="http://www.w3.org/2000/svg">
<path d="M81.8053 11.4202C60.4975 -6.14464 28.985 -3.11033 11.4202 18.1975C10.3708 42.1239 29.4596 45.6962 48.9109 49.3364C68.6069 53.0223 88.6746 56.7778 88.5826 81.8053C106.147 60.4975 103.113 28.985 81.8053 11.4202Z" fill="#0BA9DA"/>
<path d="M18.1975 88.5826C39.5053 106.147 71.0178 103.113 88.5826 81.8053C88.6746 56.7778 68.6069 53.0223 48.9109 49.3364C29.4596 45.6962 10.3708 42.1239 11.4202 18.1975C-6.14464 39.5053 -3.11033 71.0178 18.1975 88.5826Z" fill="#262626"/>
<path d="M67.5014 26.0014H33.5014C30.4638 26.0014 28.0014 28.4638 28.0014 31.5014C28.0014 34.539 30.4638 37.0014 33.5014 37.0014H45.0014V69.5014C45.0014 72.539 47.4638 75.0014 50.5014 75.0014C53.539 75.0014 56.0014 72.539 56.0014 69.5014V37.0014H67.5014C70.539 37.0014 73.0014 34.539 73.0014 31.5014C73.0014 28.4638 70.539 26.0014 67.5014 26.0014Z" fill="white"/>
</svg>
